name rise38.3101peak57.3503fall81.6963.mot
datacolumns 19
datarows 30
range 13.63328700000000 13.68161600000000
endheader
time	ground_force1_vx	ground_force1_vy	ground_force1_vz	ground_force1_px	ground_force1_py	ground_force1_pz	ground_force2_vx	ground_force2_vy	ground_force2_vz	ground_force2_px	ground_force2_py	ground_force2_pz	ground_torque1_x	ground_torque1_y	ground_torque1_z	ground_torque2_x	ground_torque2_y	ground_torque2_z	
13.63328700000000	3.27194000000000	690.91062899999997	41.57187900000000	0.25224300000000	0.00000000000000	0.10410200000000	0.00000000000000	0.00000000000000	0.00000000000000	0.00000000000000	0.00000000000000	0.00000000000000	0.00000000000000	19.99597700000000	0.00000000000000	0.00000000000000	0.00000000000000	0.00000000000000	
13.63495300000000	2.80209500000000	691.40054099999998	41.64654700000000	0.25158300000000	0.00000000000000	0.10410000000000	0.00000000000000	0.00000000000000	0.00000000000000	0.00000000000000	0.00000000000000	0.00000000000000	0.00000000000000	20.08887500000000	0.00000000000000	0.00000000000000	0.00000000000000	0.00000000000000	
13.63661500000000	2.32312300000000	691.91809100000000	41.72331300000000	0.25091800000000	0.00000000000000	0.10409700000000	0.00000000000000	0.00000000000000	0.00000000000000	0.00000000000000	0.00000000000000	0.00000000000000	0.00000000000000	20.18476800000000	0.00000000000000	0.00000000000000	0.00000000000000	0.00000000000000	
13.63828400000000	1.83471100000000	692.46297000000004	41.80181900000000	0.25024500000000	0.00000000000000	0.10409400000000	0.00000000000000	0.00000000000000	0.00000000000000	0.00000000000000	0.00000000000000	0.00000000000000	0.00000000000000	20.28344500000000	0.00000000000000	0.00000000000000	0.00000000000000	0.00000000000000	
13.63995400000000	1.33656700000000	693.03496800000005	41.88171900000000	0.24956400000000	0.00000000000000	0.10409000000000	0.00000000000000	0.00000000000000	0.00000000000000	0.00000000000000	0.00000000000000	0.00000000000000	0.00000000000000	20.38469900000000	0.00000000000000	0.00000000000000	0.00000000000000	0.00000000000000	
13.64161500000000	0.82842300000000	693.63396999999998	41.96268400000000	0.24887100000000	0.00000000000000	0.10408600000000	0.00000000000000	0.00000000000000	0.00000000000000	0.00000000000000	0.00000000000000	0.00000000000000	0.00000000000000	20.48833100000000	0.00000000000000	0.00000000000000	0.00000000000000	0.00000000000000	
13.64328600000000	0.31003700000000	694.25995699999999	42.04439800000000	0.24816500000000	0.00000000000000	0.10408200000000	0.00000000000000	0.00000000000000	0.00000000000000	0.00000000000000	0.00000000000000	0.00000000000000	0.00000000000000	20.59414900000000	0.00000000000000	0.00000000000000	0.00000000000000	0.00000000000000	
13.64495600000000	-0.21880500000000	694.91300100000001	42.12656200000000	0.24744400000000	0.00000000000000	0.10407800000000	0.00000000000000	0.00000000000000	0.00000000000000	0.00000000000000	0.00000000000000	0.00000000000000	0.00000000000000	20.70196800000000	0.00000000000000	0.00000000000000	0.00000000000000	0.00000000000000	
13.64661600000000	-0.75829400000000	695.59326299999998	42.20889300000000	0.24670700000000	0.00000000000000	0.10407300000000	0.00000000000000	0.00000000000000	0.00000000000000	0.00000000000000	0.00000000000000	0.00000000000000	0.00000000000000	20.81161300000000	0.00000000000000	0.00000000000000	0.00000000000000	0.00000000000000	
13.64828200000000	-1.30859100000000	696.30099099999995	42.29113000000000	0.24595100000000	0.00000000000000	0.10406900000000	0.00000000000000	0.00000000000000	0.00000000000000	0.00000000000000	0.00000000000000	0.00000000000000	0.00000000000000	20.92291500000000	0.00000000000000	0.00000000000000	0.00000000000000	0.00000000000000	
13.64995000000000	-1.86982600000000	697.03651600000001	42.37302600000000	0.24517600000000	0.00000000000000	0.10406500000000	0.00000000000000	0.00000000000000	0.00000000000000	0.00000000000000	0.00000000000000	0.00000000000000	0.00000000000000	21.03571700000000	0.00000000000000	0.00000000000000	0.00000000000000	0.00000000000000	
13.65162400000000	-2.44210400000000	697.80024400000002	42.45435900000000	0.24438000000000	0.00000000000000	0.10406100000000	0.00000000000000	0.00000000000000	0.00000000000000	0.00000000000000	0.00000000000000	0.00000000000000	0.00000000000000	21.14986800000000	0.00000000000000	0.00000000000000	0.00000000000000	0.00000000000000	
13.65329000000000	-3.02549600000000	698.59265600000003	42.53492200000000	0.24356200000000	0.00000000000000	0.10405700000000	0.00000000000000	0.00000000000000	0.00000000000000	0.00000000000000	0.00000000000000	0.00000000000000	0.00000000000000	21.26523000000000	0.00000000000000	0.00000000000000	0.00000000000000	0.00000000000000	
13.65495300000000	-3.62004400000000	699.41430100000002	42.61453500000000	0.24272000000000	0.00000000000000	0.10405300000000	0.00000000000000	0.00000000000000	0.00000000000000	0.00000000000000	0.00000000000000	0.00000000000000	0.00000000000000	21.38167100000000	0.00000000000000	0.00000000000000	0.00000000000000	0.00000000000000	
13.65663100000000	-4.22575800000000	700.26578900000004	42.69303600000000	0.24185500000000	0.00000000000000	0.10405000000000	0.00000000000000	0.00000000000000	0.00000000000000	0.00000000000000	0.00000000000000	0.00000000000000	0.00000000000000	21.49907400000000	0.00000000000000	0.00000000000000	0.00000000000000	0.00000000000000	
13.65828300000000	-4.84261600000000	701.14778699999999	42.77028600000000	0.24096600000000	0.00000000000000	0.10404800000000	0.00000000000000	0.00000000000000	0.00000000000000	0.00000000000000	0.00000000000000	0.00000000000000	0.00000000000000	21.61732700000000	0.00000000000000	0.00000000000000	0.00000000000000	0.00000000000000	
13.65995500000000	-5.47056400000000	702.06101300000000	42.84617100000000	0.24005100000000	0.00000000000000	0.10404500000000	0.00000000000000	0.00000000000000	0.00000000000000	0.00000000000000	0.00000000000000	0.00000000000000	0.00000000000000	21.73633200000000	0.00000000000000	0.00000000000000	0.00000000000000	0.00000000000000	
13.66162300000000	-6.10951600000000	703.00622599999997	42.92060000000000	0.23911000000000	0.00000000000000	0.10404300000000	0.00000000000000	0.00000000000000	0.00000000000000	0.00000000000000	0.00000000000000	0.00000000000000	0.00000000000000	21.85599900000000	0.00000000000000	0.00000000000000	0.00000000000000	0.00000000000000	
13.66329000000000	-6.75935200000000	703.98422300000004	42.99350400000000	0.23814500000000	0.00000000000000	0.10404200000000	0.00000000000000	0.00000000000000	0.00000000000000	0.00000000000000	0.00000000000000	0.00000000000000	0.00000000000000	21.97624900000000	0.00000000000000	0.00000000000000	0.00000000000000	0.00000000000000	
13.66494900000000	-7.41992100000000	704.99583199999995	43.06484100000000	0.23715300000000	0.00000000000000	0.10404100000000	0.00000000000000	0.00000000000000	0.00000000000000	0.00000000000000	0.00000000000000	0.00000000000000	0.00000000000000	22.09701200000000	0.00000000000000	0.00000000000000	0.00000000000000	0.00000000000000	
13.66662000000000	-8.09103800000000	706.04190000000006	43.13459300000000	0.23613600000000	0.00000000000000	0.10404100000000	0.00000000000000	0.00000000000000	0.00000000000000	0.00000000000000	0.00000000000000	0.00000000000000	0.00000000000000	22.21822800000000	0.00000000000000	0.00000000000000	0.00000000000000	0.00000000000000	
13.66828700000000	-8.77248400000000	707.12329000000000	43.20276500000000	0.23509500000000	0.00000000000000	0.10404200000000	0.00000000000000	0.00000000000000	0.00000000000000	0.00000000000000	0.00000000000000	0.00000000000000	0.00000000000000	22.33984700000000	0.00000000000000	0.00000000000000	0.00000000000000	0.00000000000000	
13.66994900000000	-9.46401100000000	708.24087299999997	43.26939100000000	0.23402800000000	0.00000000000000	0.10404200000000	0.00000000000000	0.00000000000000	0.00000000000000	0.00000000000000	0.00000000000000	0.00000000000000	0.00000000000000	22.46182700000000	0.00000000000000	0.00000000000000	0.00000000000000	0.00000000000000	
13.67161500000000	-10.16533500000000	709.39551700000004	43.33452600000000	0.23293800000000	0.00000000000000	0.10404400000000	0.00000000000000	0.00000000000000	0.00000000000000	0.00000000000000	0.00000000000000	0.00000000000000	0.00000000000000	22.58413500000000	0.00000000000000	0.00000000000000	0.00000000000000	0.00000000000000	
13.67331100000000	-10.87614200000000	710.58808399999998	43.39825300000000	0.23182500000000	0.00000000000000	0.10404600000000	0.00000000000000	0.00000000000000	0.00000000000000	0.00000000000000	0.00000000000000	0.00000000000000	0.00000000000000	22.70674600000000	0.00000000000000	0.00000000000000	0.00000000000000	0.00000000000000	
13.67494900000000	-11.59608700000000	711.81941600000005	43.46067800000000	0.23068900000000	0.00000000000000	0.10404900000000	0.00000000000000	0.00000000000000	0.00000000000000	0.00000000000000	0.00000000000000	0.00000000000000	0.00000000000000	22.82964300000000	0.00000000000000	0.00000000000000	0.00000000000000	0.00000000000000	
13.67662200000000	-12.32479400000000	713.09033299999999	43.52193200000000	0.22953300000000	0.00000000000000	0.10405200000000	0.00000000000000	0.00000000000000	0.00000000000000	0.00000000000000	0.00000000000000	0.00000000000000	0.00000000000000	22.95281600000000	0.00000000000000	0.00000000000000	0.00000000000000	0.00000000000000	
13.67828300000000	-13.06185400000000	714.40162099999998	43.58217400000000	0.22835800000000	0.00000000000000	0.10405600000000	0.00000000000000	0.00000000000000	0.00000000000000	0.00000000000000	0.00000000000000	0.00000000000000	0.00000000000000	23.07626000000000	0.00000000000000	0.00000000000000	0.00000000000000	0.00000000000000	
13.67995500000000	-13.80683400000000	715.75402599999995	43.64158100000000	0.22716400000000	0.00000000000000	0.10406100000000	0.00000000000000	0.00000000000000	0.00000000000000	0.00000000000000	0.00000000000000	0.00000000000000	0.00000000000000	23.19997800000000	0.00000000000000	0.00000000000000	0.00000000000000	0.00000000000000	
13.68161600000000	-14.55926600000000	717.14824499999997	43.70035800000000	0.22595300000000	0.00000000000000	0.10406600000000	0.00000000000000	0.00000000000000	0.00000000000000	0.00000000000000	0.00000000000000	0.00000000000000	0.00000000000000	23.32397500000000	0.00000000000000	0.00000000000000	0.00000000000000	0.00000000000000	
